#define BF_64_width 64
#define BF_64_height 64
static unsigned char BF_64_bits[] = {
   0x00, 0x00, 0x00, 0x00, 0x00, 0x00, 0x00, 0x00, 0x00, 0x00, 0x00, 0x00,
   0x00, 0x00, 0x00, 0x00, 0x00, 0x00, 0x00, 0x00, 0x00, 0x00, 0x00, 0x00,
   0x00, 0x00, 0x00, 0x00, 0x00, 0x00, 0x00, 0x00, 0x00, 0x00, 0x00, 0x00,
   0x00, 0x00, 0x00, 0x00, 0x00, 0x20, 0x00, 0x80, 0x00, 0x00, 0x01, 0x00,
   0x00, 0x00, 0x01, 0x00, 0x04, 0x00, 0x08, 0x00, 0x00, 0x90, 0x00, 0x40,
   0x02, 0x80, 0x04, 0x00, 0x00, 0x24, 0x09, 0x90, 0x24, 0x20, 0x49, 0x00,
   0x00, 0x85, 0x04, 0x14, 0x12, 0x28, 0x24, 0x00, 0x00, 0x48, 0x11, 0x20,
   0x45, 0x40, 0x8a, 0x00, 0x80, 0x26, 0x06, 0x9a, 0x18, 0x34, 0x31, 0x00,
   0x00, 0x00, 0x01, 0x00, 0x04, 0x00, 0x08, 0x00, 0x00, 0xa0, 0x00, 0x80,
   0x02, 0x00, 0x05, 0x00, 0x00, 0x00, 0x00, 0x00, 0x00, 0x00, 0x00, 0x00,
   0x00, 0x08, 0x00, 0x20, 0x00, 0x40, 0x00, 0x00, 0x00, 0x20, 0x02, 0x80,
   0x08, 0x00, 0x11, 0x00, 0x00, 0x04, 0x00, 0x10, 0x00, 0x20, 0x00, 0x00,
   0x00, 0x28, 0x05, 0xa0, 0x14, 0x40, 0x29, 0x00, 0x00, 0x42, 0x01, 0x08,
   0x05, 0x10, 0x0a, 0x00, 0x00, 0x00, 0x00, 0x00, 0x00, 0x00, 0x00, 0x00,
   0x00, 0x00, 0x00, 0x00, 0x00, 0x00, 0x00, 0x00, 0x00, 0x00, 0x00, 0x00,
   0x00, 0x00, 0x00, 0x00, 0x00, 0x00, 0x00, 0x00, 0x00, 0x00, 0x00, 0x00,
   0x00, 0x00, 0x00, 0x00, 0x00, 0x00, 0x00, 0x00, 0x00, 0x00, 0x00, 0x00,
   0x00, 0x00, 0x00, 0x00, 0x00, 0x00, 0x30, 0x0f, 0x00, 0x00, 0x00, 0x00,
   0x00, 0x00, 0x40, 0x3f, 0x00, 0x00, 0x00, 0x00, 0x00, 0x00, 0x80, 0x7f,
   0x00, 0x00, 0x00, 0x00, 0x00, 0x00, 0xc0, 0xff, 0x00, 0x00, 0x00, 0x00,
   0x00, 0x00, 0xe0, 0xff, 0x00, 0x00, 0x00, 0x00, 0x00, 0x00, 0xe0, 0xfd,
   0x00, 0x00, 0x00, 0x00, 0x00, 0x00, 0xa0, 0xfc, 0x01, 0x00, 0x00, 0x00,
   0x00, 0x00, 0x80, 0xfc, 0x01, 0x00, 0x00, 0x00, 0x00, 0x00, 0x00, 0xfd,
   0x01, 0x00, 0x00, 0x00, 0x00, 0x00, 0x00, 0xff, 0x01, 0x00, 0x00, 0x00,
   0x00, 0x00, 0x20, 0xff, 0x01, 0x20, 0x00, 0x00, 0x00, 0x00, 0xf8, 0xff,
   0x00, 0x20, 0x00, 0x00, 0x00, 0x00, 0xfc, 0xff, 0x03, 0x70, 0x00, 0x00,
   0x00, 0x00, 0xfe, 0xff, 0xff, 0xf0, 0x00, 0x00, 0x00, 0x00, 0xef, 0xff,
   0xff, 0xe3, 0x01, 0x00, 0x00, 0x00, 0xcf, 0xff, 0xff, 0xc7, 0x01, 0x00,
   0x00, 0x00, 0x87, 0xff, 0xff, 0xcf, 0x01, 0x00, 0x00, 0x00, 0x83, 0xff,
   0xff, 0xef, 0x01, 0x00, 0x00, 0x00, 0x02, 0xfd, 0xff, 0xcf, 0x01, 0x00,
   0x00, 0x00, 0x03, 0xe0, 0xff, 0x8f, 0x00, 0x00, 0x00, 0x00, 0x00, 0x00,
   0xe0, 0x07, 0x00, 0x00, 0x00, 0x00, 0x00, 0x00, 0xe0, 0x07, 0x00, 0x00,
   0x00, 0x00, 0x00, 0x00, 0xc0, 0x03, 0x00, 0x00, 0x00, 0x00, 0x00, 0x00,
   0x80, 0x07, 0x00, 0x00, 0x00, 0x00, 0x00, 0x00, 0x00, 0x0f, 0x00, 0x00,
   0x00, 0x00, 0x00, 0x00, 0x00, 0x0f, 0x00, 0x00, 0x00, 0x00, 0x00, 0x00,
   0x00, 0x07, 0x00, 0x00, 0x00, 0x00, 0x00, 0x00, 0x80, 0x07, 0x00, 0x00,
   0x00, 0x00, 0x00, 0x00, 0xc0, 0x03, 0x00, 0x00, 0x00, 0x00, 0x00, 0x00,
   0xe0, 0x01, 0x00, 0x00, 0x00, 0x00, 0x00, 0x00, 0xf0, 0x00, 0x00, 0x00,
   0x00, 0x00, 0x00, 0x00, 0xa0, 0x00, 0x00, 0x00, 0x00, 0x00, 0x00, 0x00,
   0x00, 0x00, 0x00, 0x00, 0x00, 0x00, 0x00, 0x00, 0x00, 0x00, 0x00, 0x00,
   0x00, 0x00, 0x00, 0x00, 0x00, 0x00, 0x00, 0x00, 0x00, 0x00, 0x00, 0x00,
   0x00, 0x00, 0x00, 0x00, 0x00, 0x00, 0x00, 0x00, 0x00, 0x00, 0x00, 0x00,
   0x00, 0x00, 0x00, 0x00, 0x00, 0x00, 0x00, 0x00 };
